<?xml version="1.0" encoding="utf-8" standalone="no"?>
<!DOCTYPE svg PUBLIC "-//W3C//DTD SVG 1.1//EN"
  "http://www.w3.org/Graphics/SVG/1.1/DTD/svg11.dtd">
<svg xmlns:xlink="http://www.w3.org/1999/xlink" width="360pt" height="360pt" viewBox="0 0 360 360" xmlns="http://www.w3.org/2000/svg" version="1.1">
 <metadata>
  <rdf:RDF xmlns:dc="http://purl.org/dc/elements/1.1/" xmlns:cc="http://creativecommons.org/ns#" xmlns:rdf="http://www.w3.org/1999/02/22-rdf-syntax-ns#">
   <cc:Work>
    <dc:type rdf:resource="http://purl.org/dc/dcmitype/StillImage"/>
    <dc:date>2023-10-13T15:06:52.216760</dc:date>
    <dc:format>image/svg+xml</dc:format>
    <dc:creator>
     <cc:Agent>
      <dc:title>Matplotlib v3.5.1, https://matplotlib.org/</dc:title>
     </cc:Agent>
    </dc:creator>
   </cc:Work>
  </rdf:RDF>
 </metadata>
 <defs>
  <style type="text/css">*{stroke-linejoin: round; stroke-linecap: butt}</style>
 </defs>
 <g id="figure_1">
  <g id="patch_1">
   <path d="M 0 360 
L 360 360 
L 360 0 
L 0 0 
z
" style="fill: #ffffff"/>
  </g>
  <g id="axes_1">
   <g id="patch_2">
    <path d="M 13.85 345.7 
L 348.75 345.7 
L 348.75 10.8 
L 13.85 10.8 
z
" style="fill: #ffffff"/>
   </g>
   <g id="matplotlib.axis_1"/>
   <g id="matplotlib.axis_2"/>
   <g id="line2d_1">
    <path d="M 186.942824 147.866773 
L 241.011503 130.070757 
L 254.596034 199.354673 
L 211.871421 146.576383 
L 186.942824 147.866773 
" clip-path="url(#p28fea82d05)" style="fill: none; stroke: #0018ff; stroke-width: 1.5; stroke-linecap: square"/>
   </g>
   <g id="line2d_2">
    <path d="M 150.898914 106.085535 
L 210.980767 108.122993 
L 180.359819 154.790517 
L 183.274694 129.999318 
L 150.898914 106.085535 
" clip-path="url(#p28fea82d05)" style="fill: none; stroke: #20ff00; stroke-width: 1.5; stroke-linecap: square"/>
   </g>
   <g id="line2d_3">
    <path d="M 212.063023 167.252558 
L 238.421588 187.911846 
L 221.561818 245.615645 
L 224.648729 205.484222 
L 212.063023 167.252558 
" clip-path="url(#p28fea82d05)" style="fill: none; stroke: #00c6ff; stroke-width: 1.5; stroke-linecap: square"/>
   </g>
   <g id="line2d_4">
    <path d="M 170.377641 147.859066 
L 162.474059 218.900982 
L 104.334535 189.628536 
L 148.04052 175.194997 
L 170.377641 147.859066 
" clip-path="url(#p28fea82d05)" style="fill: none; stroke: #00ff8c; stroke-width: 1.5; stroke-linecap: square"/>
   </g>
   <g id="line2d_5">
    <path d="M 124.840648 126.844079 
L 180.153549 134.326274 
L 117.358453 182.156981 
L 145.469369 140.899537 
L 124.840648 126.844079 
" clip-path="url(#p28fea82d05)" style="fill: none; stroke: #ff0029; stroke-width: 1.5; stroke-linecap: square"/>
   </g>
   <g id="line2d_6">
    <path d="M 110.793609 207.809472 
L 149.005262 220.455804 
L 189.141531 217.43255 
L 138.283546 242.997873 
L 110.793609 207.809472 
" clip-path="url(#p28fea82d05)" style="fill: none; stroke: #cdff00; stroke-width: 1.5; stroke-linecap: square"/>
   </g>
   <g id="line2d_7">
    <path d="M 205.098139 168.271272 
L 221.483315 245.48867 
L 156.432361 243.153331 
L 199.485765 217.878746 
L 205.098139 168.271272 
" clip-path="url(#p28fea82d05)" style="fill: none; stroke: #ff8400; stroke-width: 1.5; stroke-linecap: square"/>
   </g>
   <g id="line2d_8">
    <path d="M 170.57583 168.513193 
L 212.050482 151.967096 
L 193.354066 195.482658 
L 185.081017 174.745332 
L 170.57583 168.513193 
" clip-path="url(#p28fea82d05)" style="fill: none; stroke: #9600ff; stroke-width: 1.5; stroke-linecap: square"/>
   </g>
   <g id="patch_3">
    <path d="M 13.85 345.7 
L 13.85 10.8 
" style="fill: none; stroke: #000000; stroke-width: 0.8; stroke-linejoin: miter; stroke-linecap: square"/>
   </g>
   <g id="patch_4">
    <path d="M 348.75 345.7 
L 348.75 10.8 
" style="fill: none; stroke: #000000; stroke-width: 0.8; stroke-linejoin: miter; stroke-linecap: square"/>
   </g>
   <g id="patch_5">
    <path d="M 13.85 345.7 
L 348.75 345.7 
" style="fill: none; stroke: #000000; stroke-width: 0.8; stroke-linejoin: miter; stroke-linecap: square"/>
   </g>
   <g id="patch_6">
    <path d="M 13.85 10.8 
L 348.75 10.8 
" style="fill: none; stroke: #000000; stroke-width: 0.8; stroke-linejoin: miter; stroke-linecap: square"/>
   </g>
  </g>
 </g>
 <defs>
  <clipPath id="p28fea82d05">
   <rect x="13.85" y="10.8" width="334.9" height="334.9"/>
  </clipPath>
 </defs>
</svg>
